<svg width="120" height="120" viewBox="0 0 120 120" fill="none" xmlns="http://www.w3.org/2000/svg">
<g clip-path="url(#clip0_2745_1438)">
<path d="M35 59C35 68.9411 43.0589 77 53 77L80 77C82.7614 77 85 74.7614 85 72L85 38C85 32.4772 80.5228 28 75 28L40 28C37.2386 28 35 30.2386 35 33L35 59Z" fill="#FFF1DA"/>
<path d="M77.1744 72.8472C75.816 73.1514 74.493 73.715 73.2875 74.5024C70.1467 76.5037 68.3194 79.3604 69.2063 80.8826C70.0933 82.4047 73.3583 82.0154 76.4991 80.0141C77.7209 79.2545 78.8063 78.2837 79.6884 77.1618C80.0978 76.6197 80.1713 75.9442 79.8761 75.4393L78.7239 73.4619C78.4307 72.9554 77.8226 72.7145 77.1744 72.8472Z" fill="#D5D6DB"/>
<path d="M69.2875 45.8541C68.3025 46.0748 67.3431 46.4837 66.4688 47.0547C64.192 48.5055 62.8662 50.5769 63.5088 51.6797C64.1514 52.7825 66.5199 52.4999 68.7965 51.0493C69.6824 50.4982 70.4693 49.794 71.1091 48.9803C71.4056 48.5874 71.4587 48.098 71.2447 47.732L70.4105 46.3002C70.1982 45.933 69.7576 45.758 69.2875 45.8541Z" fill="#D5D6DB"/>
<path d="M56.4733 46.9845C56.254 46.9601 56.0202 47.0185 55.8174 47.148L50.4693 50.5562C50.0219 50.8404 49.8429 51.3878 50.0698 51.779C50.1217 51.8686 50.1927 51.9451 50.279 52.0041L63.4606 61.0891L81.2941 49.7244L56.4733 46.9845Z" fill="#029BC5"/>
<path d="M112.85 45.6999L64.3181 76.252L35.6054 87.6774L20.9623 90.5882L19.3513 87.851L100.246 37.9043C102.657 36.4095 105.343 35.4919 108.032 35.2448C109.209 35.1429 110.372 35.1821 111.493 35.3609C112.487 35.5116 113.43 35.8023 114.294 36.2244C115.258 36.7026 117.092 36.7578 117.687 37.7106C117.689 37.7091 119.091 42.0835 112.85 45.6999V45.6999Z" fill="#E1E6E9"/>
<path d="M64.9615 72.2095L43.9662 105.679C43.704 106.15 43.8597 106.676 44.3135 106.855C44.5921 106.965 44.933 106.922 45.2194 106.74L50.5634 103.35C51.5913 102.697 52.5014 101.869 53.2375 100.915L93.9539 53.0462L64.9615 72.2095Z" fill="#029BC5"/>
<path d="M11.9819 71.092C11.6317 70.9723 11.2149 71.0344 10.8631 71.2584L6.44557 74.0718C5.84365 74.4549 5.6038 75.1913 5.90966 75.717C5.96794 75.8169 6.04364 75.9049 6.13437 75.9773L18.5111 85.8896L31.5241 77.7615L11.9819 71.092Z" fill="#029BC5"/>
<path d="M22.6595 87.6766L15.998 97.0061C15.9003 97.1401 15.9233 97.3085 16.0492 97.3818C16.1401 97.4346 16.2641 97.4251 16.3649 97.3576L20.4931 94.7416C20.5252 94.7213 20.5542 94.6958 20.5782 94.6667L30.3118 82.832L22.6595 87.6766Z" fill="#029BC5"/>
<path d="M110.697 35.7631C109.542 35.5777 108.344 35.5381 107.132 35.6447C105.951 37.2958 105.196 39.1505 104.943 41.0239C104.924 41.4002 105.227 41.6711 105.62 41.6289C105.742 41.6156 105.864 41.5727 105.973 41.504L113.581 36.6597C112.692 36.2211 111.72 35.9193 110.697 35.7631Z" fill="#029BC5"/>
<path d="M94.1174 44.6712L99.0844 41.5342L103.711 49.4033L98.744 52.5402L94.1174 44.6712Z" fill="#D5D6DB"/>
<path d="M90.992 47.7834C90.3935 48.1626 90.1542 48.8914 90.4581 49.4111L90.9504 50.2531C91.2743 50.7595 92.0136 50.8486 92.6018 50.4519C93.1617 50.0741 93.3871 49.3874 93.1173 48.8804L92.625 48.0384C92.3214 47.5191 91.5906 47.4049 90.992 47.7834V47.7834Z" fill="#3A556A"/>
<path d="M86.5277 50.5559C85.9291 50.935 85.6899 51.6638 85.9938 52.1835L86.4861 53.0255C86.8099 53.532 87.5492 53.621 88.1375 53.2243C88.6973 52.8465 88.9227 52.1599 88.653 51.6528L88.1606 50.8109C87.8568 50.2918 87.126 50.1775 86.5277 50.5559V50.5559Z" fill="#3A556A"/>
<path d="M82.0618 53.3292C81.4639 53.7089 81.2255 54.4368 81.5292 54.956L82.0215 55.798C82.3453 56.3044 83.0846 56.3935 83.6729 55.9968C84.2327 55.619 84.4581 54.9324 84.1884 54.4254L83.696 53.5834C83.3922 53.0637 82.6606 52.9499 82.0618 53.3292V53.3292Z" fill="#3A556A"/>
<path d="M77.5975 56.1016C76.9996 56.4813 76.7612 57.2092 77.0648 57.7285L77.5571 58.5704C77.881 59.0769 78.6202 59.166 79.2085 58.7693C79.7683 58.3915 79.9938 57.7048 79.724 57.1978L79.2317 56.3558C78.9276 55.8362 78.196 55.7224 77.5975 56.1016V56.1016Z" fill="#3A556A"/>
<path d="M73.1335 58.8743C72.5353 59.2541 72.2967 59.9823 72.6005 60.5018L73.0931 61.3441C73.3968 61.8634 74.1281 61.9771 74.7264 61.5981C75.3248 61.2191 75.5637 60.491 75.26 59.9717L74.7674 59.1294C74.4645 58.6096 73.7335 58.4951 73.1348 58.8735L73.1335 58.8743Z" fill="#3A556A"/>
<path d="M68.6691 61.6467C68.0709 62.0265 67.8324 62.7548 68.1362 63.2743L68.6288 64.1166C68.9325 64.6359 69.6637 64.7496 70.2621 64.3706C70.8604 63.9916 71.0993 63.2634 70.7957 62.7442L70.3031 61.9018C70.0002 61.3821 69.2692 61.2676 68.6704 61.6459C68.6699 61.6462 68.6694 61.6466 68.6691 61.6467Z" fill="#3A556A"/>
<path d="M64.2045 64.4193C63.6063 64.7991 63.3678 65.5273 63.6716 66.0468L64.1642 66.8891C64.4686 67.4078 65.2002 67.5204 65.7979 67.1409C66.3946 66.7621 66.633 66.0355 66.3308 65.5168L65.8382 64.6745C65.5346 64.1549 64.8034 64.0406 64.2045 64.4193Z" fill="#3A556A"/>
<path d="M59.7399 67.1918C59.1417 67.5716 58.9032 68.2998 59.207 68.8193L59.6996 69.6616C60.004 70.1804 60.7356 70.293 61.3333 69.9135C61.93 69.5347 62.1684 68.808 61.8662 68.2894L61.3736 67.447C61.07 66.9274 60.3388 66.8131 59.7399 67.1918Z" fill="#3A556A"/>
<path d="M55.2756 69.9642C54.6773 70.344 54.4388 71.0722 54.7426 71.5917L55.2352 72.434C55.5396 72.9528 56.2712 73.0653 56.869 72.6859C57.4657 72.307 57.7041 71.5804 57.4018 71.0617L56.9092 70.2194C56.6054 69.7 55.8742 69.5856 55.2756 69.9642Z" fill="#3A556A"/>
<path d="M50.8097 72.7374C50.2114 73.1164 49.9725 73.8445 50.2762 74.3638L50.2768 74.3649L50.7694 75.2072C51.0738 75.726 51.8054 75.8386 52.4031 75.4591C52.9999 75.0803 53.2382 74.3536 52.936 73.835L52.4434 72.9926C52.1399 72.473 51.4086 72.3586 50.8097 72.7374Z" fill="#3A556A"/>
<path d="M46.3466 75.5091C45.7483 75.8881 45.5094 76.6163 45.813 77.1355L45.8137 77.1366L46.3063 77.9789C46.6107 78.4977 47.3423 78.6103 47.94 78.2308C48.5368 77.852 48.7752 77.1253 48.4729 76.6067L47.9803 75.7644C47.6765 75.2449 46.9453 75.1306 46.3466 75.5091Z" fill="#3A556A"/>
</g>
<defs>
<clipPath id="clip0_2745_1438">
<rect width="120" height="120" fill="white"/>
</clipPath>
</defs>
</svg>
